# xmcd CD database file
#
# Track frame offsets:
#	150
#	25560
#	43397
#	66305
#	82912
#	101835
#	129195
#	147442
#	165400
#	180855
#	203220
#	222577
#
# Disc length: 3504 seconds
#
# Revision: 0
# Processed by: cddbd v1.5.1PL0 Copyright (c) Steve Scherf et al.
# Submitted via: CDex 1.50Beta7
#
DISCID=a40dae0c
DTITLE=Eddie Condon - The Town Hall Concerts Volume 2 [CD2/2)
DYEAR=1944
DGENRE=Jazz
TTITLE0=The Lady's In Love With You
TTITLE1=China Boy
TTITLE2=Baby, Won't You Please Come Home?
TTITLE3=Clarinet Chase
TTITLE4=Pennies From Heaven
TTITLE5=Ensemble Blues - Carnegie Leap
TTITLE6=Struttin' With Some Barbeque
TTITLE7=You Can Depend On Me
TTITLE8=High Society
TTITLE9=Royal garden Blues
TTITLE10=Singing The Blues
TTITLE11=Blues Ensemble
EXTD=YEAR: 1944
EXTT0=
EXTT1=
EXTT2=
EXTT3=
EXTT4=
EXTT5=
EXTT6=
EXTT7=
EXTT8=
EXTT9=
EXTT10=
EXTT11=
PLAYORDER=
